<?xml version="1.0" encoding="UTF-8"?>
<svg version="1.1" xmlns="http://www.w3.org/2000/svg" width="500" height="500">
<path d="M0 0 C165 0 330 0 500 0 C500 165 500 330 500 500 C335 500 170 500 0 500 C0 335 0 170 0 0 Z " fill="#393939" transform="translate(0,0)"/>
<path d="M0 0 C-1.53821307 5.19583699 -3.1108097 10.37782799 -4.76171875 15.5390625 C-9.05147928 29.03994477 -12.78888823 42.59593331 -16.12182617 56.35791016 C-17.77708066 63.18336717 -19.51881778 69.96276275 -21.421875 76.72265625 C-23.91310631 85.57862672 -26.20422102 94.47796297 -28.42993164 103.40405273 C-29.06159755 105.93388568 -29.69955594 108.46207697 -30.33789062 110.99023438 C-33.16906119 122.27360061 -35.68295843 133.60028449 -38 145 C-33.79740125 145.65758042 -29.75741106 146.12282492 -25.50390625 146.09765625 C-24.53388672 146.09443359 -23.56386719 146.09121094 -22.56445312 146.08789062 C-21.57380859 146.07951172 -20.58316406 146.07113281 -19.5625 146.0625 C-18.54478516 146.05798828 -17.52707031 146.05347656 -16.47851562 146.04882812 C-13.98561491 146.03712437 -11.49283926 146.02072848 -9 146 C-9.33 148.31 -9.66 150.62 -10 153 C-26.83 153 -43.66 153 -61 153 C-59.30129631 146.77141982 -57.60805758 140.65665325 -55.66401672 134.5193634 C-50.65620786 118.63426285 -46.76501385 102.48279735 -42.8125 86.3125 C-41.59433102 81.3345259 -40.37175955 76.35767659 -39.14185143 71.38258934 C-38.66142797 69.43188834 -38.18714567 67.47967805 -37.71308899 65.52742004 C-36.02118906 58.66630166 -34.09444177 51.98236504 -31.74687195 45.31535339 C-30.89766776 43.0882354 -30.89766776 43.0882354 -31 41 C-54.63872241 72.08516985 -75.33650617 104.35959096 -94.24365234 138.52587891 C-97.34698854 144.12099812 -100.47924615 149.65508745 -104 155 C-104.33 155 -104.66 155 -105 155 C-105.75222621 145.45850796 -106.50205984 135.91682888 -107.25 126.375 C-107.30596218 125.66108093 -107.36192436 124.94716187 -107.41958237 124.21160889 C-109.69696562 95.14714852 -111.87656285 66.07614022 -114 37 C-114.33 37 -114.66 37 -115 37 C-115.1043335 37.71091797 -115.20866699 38.42183594 -115.31616211 39.15429688 C-117.54854089 53.98797523 -120.36406311 68.44021266 -124.4375 82.875 C-124.70867142 83.8498938 -124.70867142 83.8498938 -124.98532104 84.84448242 C-131.87538396 109.43977514 -142.68543512 139.12543128 -165.98046875 152.7421875 C-175.94853122 157.91815037 -186.90963411 161.69165089 -198.203125 158.34765625 C-201.28059416 156.60724287 -202.03965469 154.8788329 -203.125 151.5625 C-202.97516707 147.29226162 -202.0208806 145.93456973 -199 143 C-194.8742116 140.9371058 -190.30195407 141.81989198 -186 143 C-178.21381881 145.05841572 -171.94763554 143.98344972 -165 140 C-144.36023436 124.07699062 -137.1586526 94.91894401 -131 71 C-130.73856201 70.01781494 -130.47712402 69.03562988 -130.20776367 68.02368164 C-128.33403508 60.83625396 -127.01767476 53.65835107 -125.9375 46.3125 C-125.76831055 45.18924316 -125.59912109 44.06598633 -125.42480469 42.90869141 C-124.09563812 33.95922595 -122.95232647 24.99697897 -122 16 C-140.88912191 17.4496806 -159.64130353 21.2757479 -173 36 C-174.91467846 38.89583211 -176.51285235 41.86613951 -178 45 C-178.33 45.66 -178.66 46.32 -179 47 C-179.87868198 55.55634584 -178.38353699 61.07424311 -173.5859375 68.05859375 C-169.98841637 73.37448391 -169.98841637 73.37448391 -170.0625 77.375 C-171 80 -171 80 -173 82 C-179.64059543 82.99608931 -179.64059543 82.99608931 -182.75390625 80.71484375 C-188.80222721 74.06017482 -190.61204301 67.08696448 -190.34375 58.2109375 C-189.01708079 45.81864103 -183.28255637 34.19212362 -174.12109375 25.68359375 C-155.26954626 10.72039491 -133.48363518 8.04374682 -110.234375 7.2109375 C-106.11338586 7.04921817 -102.0845624 6.56370658 -98 6 C-97.96559814 6.75015381 -97.93119629 7.50030762 -97.89575195 8.27319336 C-96.85083542 30.2812415 -95.29478473 52.24587774 -93.60805893 74.21248245 C-93.43742687 76.43845402 -93.26798569 78.66451366 -93.0987854 80.89059448 C-92.82831481 84.4438653 -92.55422675 87.99683938 -92.27721786 91.54960632 C-92.12455812 93.51401465 -91.97449556 95.47862426 -91.82449341 97.4432373 C-91.73086517 98.62913452 -91.63723694 99.81503174 -91.54077148 101.03686523 C-91.46020004 102.07189682 -91.3796286 103.10692841 -91.2966156 104.17332458 C-91.01744472 106.83375602 -90.57230412 109.38854518 -90 112 C-89.62939453 111.36835938 -89.25878906 110.73671875 -88.87695312 110.0859375 C-24.07853026 0 -24.07853026 0 0 0 Z " fill="#F65F54" transform="translate(238,144)"/>
<path d="M0 0 C0.99 0.66 1.98 1.32 3 2 C2.35215814 7.94650633 1.28016565 13.67387483 -0.0625 19.5 C-0.24876953 20.32242188 -0.43503906 21.14484375 -0.62695312 21.9921875 C-1.08120885 23.9955717 -1.54011599 25.9979003 -2 28 C2.37353083 24.66923231 6.68709622 21.33196563 10.75 17.625 C20.34346217 9.12519252 32.48819535 -0.41888571 45.7734375 -0.2890625 C49.10056822 0.14288079 50.7755761 1.56703636 53 4 C56.23278532 13.69835596 53.13624995 23.47907114 50.18182373 32.83889771 C49.48522079 35.04684404 48.80967212 37.26031859 48.13916016 39.47631836 C47.21984474 42.50966799 46.29358442 45.5407275 45.36035156 48.56982422 C43.31450348 55.21946494 41.32952891 61.88542608 39.375 68.5625 C39.03275391 69.68978516 38.69050781 70.81707031 38.33789062 71.97851562 C36.5130528 78.21938512 35.63150949 83.49682482 36 90 C37.88455753 90.63644762 37.88455753 90.63644762 40 91 C42.41388966 89.60447749 42.41388966 89.60447749 44.75 87.5 C45.62269531 86.76910156 46.49539063 86.03820312 47.39453125 85.28515625 C49.05278978 83.83076159 50.69771519 82.36091634 52.32421875 80.87109375 C53.02160156 80.23300781 53.71898437 79.59492188 54.4375 78.9375 C55.05496094 78.34839844 55.67242187 77.75929688 56.30859375 77.15234375 C56.86675781 76.77207031 57.42492187 76.39179688 58 76 C61 77 61 77 62.1875 79.0625 C62.5896875 80.0215625 62.5896875 80.0215625 63 81 C55.36092684 89.20031119 47.33556421 95.82239208 38 102 C37.16855469 102.58394531 36.33710938 103.16789062 35.48046875 103.76953125 C32.37303008 105.31101658 30.13586474 105.30118235 26.6875 105.1875 C25.08455078 105.14689453 25.08455078 105.14689453 23.44921875 105.10546875 C22.64097656 105.07066406 21.83273437 105.03585937 21 105 C20.67 104.01 20.34 103.02 20 102 C19.34 102 18.68 102 18 102 C11.29585302 81.88755907 23.77346311 55.21057856 29.51953125 36.046875 C32.33325328 27.1849873 32.33325328 27.1849873 33 18 C24.17637743 17.04091059 17.60321384 21.58014146 10.8125 26.8125 C-3.08899425 38.46970913 -7.59836618 51.89255798 -11.1796875 69.21484375 C-12.05038995 73.23251365 -13.04031262 77.20644858 -14.0625 81.1875 C-15.48736353 86.74526975 -16.68974184 92.29541214 -17.60546875 97.9609375 C-18 100 -18 100 -19 102 C-24.94 102 -30.88 102 -37 102 C-35.30112814 93.20381067 -33.31962371 84.47953062 -31.3125 75.75 C-30.95879189 74.20801463 -30.60511394 72.66602234 -30.25146484 71.12402344 C-29.17062422 66.41532731 -28.08584978 61.70754318 -27 57 C-26.82905823 56.2584668 -26.65811646 55.51693359 -26.48199463 54.75292969 C-25.51608493 50.56410325 -24.54754987 46.37589847 -23.57504272 42.18859863 C-23.135423 40.294898 -22.69721097 38.40087074 -22.2590332 36.50683594 C-20.06385178 27.08856581 -20.06385178 27.08856581 -18.8125 22.85546875 C-18.02363873 20.08307649 -17.82641771 17.86410786 -18 15 C-22.42700821 15.53831134 -25.01993861 17.15681073 -28.5625 19.8125 C-29.49191406 20.49957031 -30.42132813 21.18664062 -31.37890625 21.89453125 C-33.75976421 23.80702371 -35.89290103 25.79374343 -38 28 C-39.32 27.34 -40.64 26.68 -42 26 C-42 23 -42 23 -40.92578125 21.52734375 C-30.28818107 11.04428498 -15.93962429 -2.05672571 0 0 Z " fill="#F26054" transform="translate(350,193)"/>
<path d="M0 0 C1.69438171 1.24523926 1.69438171 1.24523926 3 3 C3.6329625 10.69066125 0.97135139 18.51261498 -1.23828125 25.78125 C-1.56032028 26.87481812 -1.88235931 27.96838623 -2.2141571 29.09509277 C-3.23725776 32.56635199 -4.27355255 36.03345371 -5.3125 39.5 C-10.90656694 58.04448099 -10.90656694 58.04448099 -15.54296875 76.84375 C-15.71266678 77.60610962 -15.88236481 78.36846924 -16.0572052 79.15393066 C-16.85555042 83.06248122 -17.14348491 86.14965345 -16 90 C-10.92307998 88.68209746 -8.12029516 86.62924376 -4.375 83 C1.30547592 77.52637615 1.30547592 77.52637615 5 76 C6.32 77.32 7.64 78.64 9 80 C5.55122084 88.60189687 -4.79133912 95.16361773 -12.375 100.0625 C-12.94508789 100.43205811 -13.51517578 100.80161621 -14.10253906 101.18237305 C-18.77381067 104.09065597 -23.50336068 106.56339102 -29.125 105.9375 C-33 105 -33 105 -35.5 103.1875 C-43.78644318 85.57880824 -29.2027024 54.54168157 -24.03955078 36.62255859 C-22.64310963 31.75633178 -21.28495302 26.87997861 -19.9375 22 C-19.55079569 20.60416266 -19.16407892 19.20832878 -18.77734375 17.8125 C-18.52082031 16.884375 -18.26429688 15.95625 -18 15 C-25.79043718 16.78796919 -30.05336246 20.43114086 -35.51953125 26.015625 C-38 28 -38 28 -40.13671875 27.984375 C-42.17033021 26.91001423 -43.49561353 25.73004444 -45 24 C-35.4119047 11.8205276 -16.97389434 -4.95071918 0 0 Z " fill="#F06156" transform="translate(464,193)"/>
<path d="M0 0 C2.25390625 1.328125 2.25390625 1.328125 4 3 C5.09155239 10.09509056 2.64871194 16.79290923 0.69775391 23.56494141 C-0.08702753 26.30371328 -0.85120389 29.04779379 -1.61328125 31.79296875 C-3.94497587 40.1807746 -6.2873722 48.56511433 -8.71484375 56.92578125 C-8.98441895 57.85696777 -9.25399414 58.7881543 -9.53173828 59.74755859 C-10.03290769 61.47422669 -10.53749507 63.19990846 -11.04638672 64.92431641 C-13.47226685 73.28393014 -15.32361107 81.26250114 -15 90 C-9.81479667 89.55577283 -7.22472338 87.99704191 -3.3125 84.625 C-2.38050781 83.83351563 -1.44851563 83.04203125 -0.48828125 82.2265625 C1.40635892 80.5312016 3.23620295 78.82868591 5 77 C7 78 9 79 11 80 C8.83846016 84.97154162 5.09950898 87.60896321 1 91 C0.23171875 91.66644531 -0.5365625 92.33289063 -1.328125 93.01953125 C-8.85546825 99.36920951 -17.80701682 106.23353679 -28.15625 105.46484375 C-31.03142218 104.73995924 -32.35045264 103.4055899 -34 101 C-36.18642396 94.44072811 -34.81403375 87.73019638 -33.4375 81.125 C-33.26331543 80.27421875 -33.08913086 79.4234375 -32.90966797 78.546875 C-23.81933897 35.63867794 -23.81933897 35.63867794 -17 22 C-16.95977609 19.6670134 -16.95679753 17.33293334 -17 15 C-21.04613035 15.54138364 -23.34032307 16.69110671 -26.5 19.25 C-27.27214844 19.87519531 -28.04429687 20.50039062 -28.83984375 21.14453125 C-31.37285557 23.32026473 -33.7145742 25.56712737 -36 28 C-38.475 27.01 -38.475 27.01 -41 26 C-41 22 -41 22 -39.671875 20.17578125 C-29.57875142 10.39037486 -15.39484972 -3.29301598 0 0 Z " fill="#F56054" transform="translate(289,193)"/>
<path d="M0 0 C2.74279765 2.7736156 3.47131141 4.95218293 3.5625 8.8125 C3.43778768 13.77164886 1.91201812 16.22800072 -1.4921875 19.72265625 C-4.47861676 22.25261057 -7.15748819 22.34990498 -11.02734375 22.265625 C-13 22 -13 22 -15.4375 20.5625 C-17.7317643 16.79990655 -18.31067363 13.38641571 -18 9 C-16.78033408 5.26208268 -14.71850712 2.6569208 -11.8125 0 C-7.83247442 -1.41512021 -4.01512944 -1.37597132 0 0 Z " fill="#EC6157" transform="translate(478,142)"/>
<path d="M0 0 C3 1.4375 3 1.4375 5 4 C6.00471261 8.68569509 5.44627039 12.10745922 3.3125 16.375 C0.1177925 20.00142473 -2.20542821 21.7009047 -7 22.5 C-10 22 -10 22 -12.875 20.125 C-15.46081146 16.32233609 -15.71576715 13.96293725 -15.5 9.4453125 C-14.68940305 5.48098681 -12.94067104 3.73062311 -10 1 C-6.78056368 -0.60971816 -3.49085354 -0.45387771 0 0 Z " fill="#F35F54" transform="translate(303,142)"/>
<path d="M0 0 C0.66 0.33 1.32 0.66 2 1 C-3 6 -8 11 -13 16 C-13 11.80097127 -10.79028033 9.87644101 -8 7 C-5.38999143 4.59744128 -2.7178542 2.27949062 0 0 Z " fill="#C96058" transform="translate(433,203)"/>
<path d="M0 0 C0.66 0.33 1.32 0.66 2 1 C0.37660195 2.70884005 -1.29319053 4.37446717 -3 6 C-3.66 6 -4.32 6 -5 6 C-5 4.35 -5 2.7 -5 1 C-4.67 1.66 -4.34 2.32 -4 3 C-2.68 2.01 -1.36 1.02 0 0 Z " fill="#B15952" transform="translate(352,218)"/>
</svg>
